# xmcd
#
# Track frame offsets:
# 150
# 16041
# 30698
# 41231
# 51968
# 69438
# 86192
# 97298
# 112310
# 122276
# 136736
# 148652
#
# Disc length: 2282 seconds
#
#
# Revision: 0
# Processed by: cddbd v1.5.1PL0 Copyright (c) Steve Scherf et al.
# Submitted via: FreeRIP 2.91 
#
DISCID=ab08e80c
DTITLE=Barbara Fairchild - Wings Of A Dove
DYEAR=2002
DGENRE=Gospel
TTITLE0=Had It Not Been
TTITLE1=I'll Meet You In The Morning
TTITLE2=Longer I Serve Him
TTITLE3=Little Is Much
TTITLE4=Wayfaring Stranger
TTITLE5=Sweet Hour Of Prayer
TTITLE6=Wings Of A Dove
TTITLE7=He Was There All The Time
TTITLE8=Old Country Church
TTITLE9=Supper Time
TTITLE10=Satisfied
TTITLE11=His Eye Is On The Sparrow
EXTD=
EXTT0=
EXTT1=
EXTT2=
EXTT3=
EXTT4=
EXTT5=
EXTT6=
EXTT7=
EXTT8=
EXTT9=
EXTT10=
EXTT11=
PLAYORDER=
